# xmcd
# 
# Track frame offsets:
#     182
#     19322
#     37407
#     53282
#     64817
#     87415
#     97880
#     112455
#     124535
#     134455
#     147857
#     163370
#     174852
#     184630
#     199192
#     208880
#     226445
#     237450
#     252147
#     268770
#     280125
# 
# Disc length: 3914
# 
# Revision: 4
# Processed by: cddbd v1.5.2PL0 Copyright (c) Steve Scherf et al.
# Submitted via: BonkEnc v1.0.8
# 
DISCID=3e0f4815
DTITLE=Various Artist - Country Collection Cd 2
DYEAR=1993
DGENRE=Country
TTITLE0=Bobbie Gentry - Ode to Billie Joe
TTITLE1=Rick Nelson - Garden party
TTITLE2=Calvin Russel - One step ahead
TTITLE3=Dave Dudley - Six days on the road
TTITLE4=Big Al Downing - Mr. Jones
TTITLE5=Patsy Cline - Gotta lot of rhytm
TTITLE6=Fats Domino and Doug Kershaw - My Toot Toot
TTITLE7=Jimmy C. Newman - Jambalaya
TTITLE8=Dolly Parton - Relaese me
TTITLE9=Ray Charles - Cryin' time
TTITLE10=Joe Sun - The year the president died
TTITLE11=Orville Nash - Tombstone gun
TTITLE12=Ernest Tubb - Half my heart's in Texas
TTITLE13=Loretta Lynn - Coal miner's daughter
TTITLE14=Bill Monroe - I saw the light
TTITLE15=Johnny Paycheck - I'm a survivor
TTITLE16=Doc and Merle Watson - Black mountain rag (live)
TTITLE17=Carl Jackson and John Starling and the Nash Ramblers Featuring Emmylou Harris - Don't let our love die
TTITLE18=Susan Marshall - Are you sure hank done it this way
TTITLE19=Hank Edwards - I'm so lonesome I could cry
TTITLE20=Charlie Rich - The most beautiful girl (live)
EXTD=
EXTT0=
EXTT1=
EXTT2=
EXTT3=
EXTT4=
EXTT5=
EXTT6=
EXTT7=
EXTT8=
EXTT9=
EXTT10=
EXTT11=
EXTT12=
EXTT13=
EXTT14=
EXTT15=
EXTT16=
EXTT17=
EXTT18=
EXTT19=
EXTT20=
PLAYORDER=
